<svg viewBox="0 0 24 25" fill="none" xmlns="http://www.w3.org/2000/svg">
  <path d="M22.046 12.237c0-.864-.07-1.494-.222-2.147h-9.842v3.897h5.777c-.116.968-.745 2.426-2.143 3.406l-.02.13 3.112 2.415.216.022c1.98-1.832 3.122-4.527 3.122-7.723" fill="#4285F4"/>
  <path d="M11.982 22.503c2.83 0 5.207-.933 6.942-2.543l-3.308-2.567c-.885.619-2.073 1.05-3.634 1.05-2.772 0-5.124-1.831-5.963-4.363l-.123.01L2.66 16.6l-.042.118c1.724 3.43 5.265 5.786 9.364 5.786" fill="#34A853"/>
  <path d="M6.019 14.08a6.5 6.5 0 0 1-.35-2.077c0-.723.129-1.423.338-2.076l-.005-.14L2.725 7.24l-.107.051A10.5 10.5 0 0 0 1.5 12.003c0 1.692.408 3.29 1.118 4.714z" fill="#FBBC05"/>
  <path d="M11.982 5.563c1.969 0 3.296.852 4.053 1.564l2.959-2.894c-1.817-1.691-4.181-2.73-7.012-2.73-4.1 0-7.64 2.357-9.364 5.787l3.39 2.637c.85-2.532 3.202-4.364 5.974-4.364" fill="#EB4335"/>
</svg>
